<svg width="141" height="52" viewBox="0 0 141 52" fill="none" xmlns="http://www.w3.org/2000/svg">
<path d="M15.796 41.44C13.0093 41.44 10.604 40.9853 8.58 40.076C6.58533 39.1373 5.03067 37.788 3.916 36.028C2.83067 34.2387 2.22933 32.068 2.112 29.516C2.08267 28.2547 2.068 26.92 2.068 25.512C2.068 24.0747 2.08267 22.7107 2.112 21.42C2.22933 18.9267 2.84533 16.8147 3.96 15.084C5.07467 13.3533 6.644 12.0333 8.668 11.124C10.692 10.2147 13.068 9.76 15.796 9.76C17.996 9.76 19.9467 10.0387 21.648 10.596C23.3493 11.124 24.772 11.8427 25.916 12.752C27.0893 13.6613 27.9693 14.6587 28.556 15.744C29.172 16.8293 29.4947 17.9 29.524 18.956C29.5533 19.22 29.4653 19.44 29.26 19.616C29.084 19.792 28.864 19.88 28.6 19.88H22.176C21.8533 19.88 21.604 19.836 21.428 19.748C21.2813 19.6307 21.1493 19.4693 21.032 19.264C20.8267 18.824 20.5187 18.3693 20.108 17.9C19.7267 17.4013 19.184 16.976 18.48 16.624C17.8053 16.272 16.9107 16.096 15.796 16.096C14.124 16.096 12.804 16.536 11.836 17.416C10.8973 18.296 10.384 19.704 10.296 21.64C10.208 24.1627 10.208 26.7147 10.296 29.296C10.384 31.3493 10.9267 32.8307 11.924 33.74C12.9213 34.6493 14.2413 35.104 15.884 35.104C16.9987 35.104 17.9813 34.9133 18.832 34.532C19.712 34.1507 20.4013 33.564 20.9 32.772C21.3987 31.9507 21.648 30.9093 21.648 29.648V28.812H17.512C17.1893 28.812 16.9107 28.7093 16.676 28.504C16.4707 28.2693 16.368 27.9907 16.368 27.668V24.412C16.368 24.0893 16.4707 23.8253 16.676 23.62C16.9107 23.3853 17.1893 23.268 17.512 23.268H28.6C28.9227 23.268 29.1867 23.3853 29.392 23.62C29.5973 23.8253 29.7 24.0893 29.7 24.412V29.428C29.7 31.9507 29.128 34.1067 27.984 35.896C26.84 37.6853 25.212 39.064 23.1 40.032C21.0173 40.9707 18.5827 41.44 15.796 41.44ZM35.364 41C35.0413 41 34.7773 40.8973 34.572 40.692C34.3666 40.4867 34.264 40.2227 34.264 39.9V19.22C34.264 18.9267 34.3666 18.6773 34.572 18.472C34.7773 18.2373 35.0413 18.12 35.364 18.12H40.424C40.7466 18.12 41.0106 18.2373 41.216 18.472C41.4213 18.6773 41.524 18.9267 41.524 19.22V20.98C42.316 20.0707 43.2546 19.3667 44.34 18.868C45.4546 18.3693 46.7013 18.12 48.08 18.12H50.016C50.3093 18.12 50.5586 18.2227 50.764 18.428C50.9986 18.6333 51.116 18.8973 51.116 19.22V23.752C51.116 24.0453 50.9986 24.3093 50.764 24.544C50.5586 24.7493 50.3093 24.852 50.016 24.852H45.748C44.5453 24.852 43.6066 25.1893 42.932 25.864C42.2866 26.5093 41.964 27.4333 41.964 28.636V39.9C41.964 40.2227 41.8466 40.4867 41.612 40.692C41.4066 40.8973 41.1426 41 40.82 41H35.364ZM58.5124 49.36C58.2484 49.36 58.0284 49.272 57.8524 49.096C57.6764 48.92 57.5884 48.7 57.5884 48.436C57.5884 48.3773 57.5884 48.2893 57.5884 48.172C57.6178 48.084 57.6618 47.9813 57.7204 47.864L61.1524 39.592L52.7044 19.616C52.6164 19.4107 52.5724 19.2347 52.5724 19.088C52.6311 18.824 52.7484 18.604 52.9244 18.428C53.1004 18.2227 53.3204 18.12 53.5844 18.12H58.6004C58.9818 18.12 59.2604 18.2227 59.4364 18.428C59.6418 18.604 59.7738 18.8093 59.8324 19.044L64.8924 31.848L70.0404 19.044C70.1578 18.8093 70.3044 18.604 70.4804 18.428C70.6858 18.2227 70.9791 18.12 71.3604 18.12H76.2884C76.5524 18.12 76.7724 18.2227 76.9484 18.428C77.1538 18.604 77.2564 18.8093 77.2564 19.044C77.2564 19.1907 77.2124 19.3813 77.1244 19.616L64.6724 48.436C64.5844 48.6707 64.4378 48.876 64.2324 49.052C64.0271 49.2573 63.7338 49.36 63.3524 49.36H58.5124ZM92.2023 41C90.325 41 88.697 40.7067 87.3183 40.12C85.969 39.504 84.9277 38.5653 84.1943 37.304C83.461 36.0133 83.0943 34.356 83.0943 32.332V23.884H79.6623C79.3397 23.884 79.061 23.7813 78.8263 23.576C78.621 23.3707 78.5183 23.1067 78.5183 22.784V19.22C78.5183 18.8973 78.621 18.6333 78.8263 18.428C79.061 18.2227 79.3397 18.12 79.6623 18.12H83.0943V10.86C83.0943 10.5373 83.197 10.2733 83.4023 10.068C83.637 9.86267 83.901 9.76 84.1943 9.76H89.2983C89.621 9.76 89.885 9.86267 90.0903 10.068C90.2957 10.2733 90.3983 10.5373 90.3983 10.86V18.12H95.8983C96.221 18.12 96.485 18.2227 96.6903 18.428C96.8957 18.6333 96.9983 18.8973 96.9983 19.22V22.784C96.9983 23.1067 96.8957 23.3707 96.6903 23.576C96.485 23.7813 96.221 23.884 95.8983 23.884H90.3983V31.716C90.3983 32.7133 90.589 33.5053 90.9703 34.092C91.3517 34.6787 91.997 34.972 92.9063 34.972H96.2943C96.617 34.972 96.881 35.0747 97.0863 35.28C97.2917 35.4853 97.3943 35.7493 97.3943 36.072V39.9C97.3943 40.2227 97.2917 40.4867 97.0863 40.692C96.881 40.8973 96.617 41 96.2943 41H92.2023Z" fill="#0D0E12"/>
<path d="M100.264 41C100.147 41 100.051 40.9627 99.976 40.888C99.9013 40.8133 99.864 40.7173 99.864 40.6V38.568C99.864 38.4613 99.9013 38.3707 99.976 38.296C100.051 38.2107 100.147 38.168 100.264 38.168H102.28C102.397 38.168 102.493 38.2107 102.568 38.296C102.653 38.3707 102.696 38.4613 102.696 38.568V40.6C102.696 40.7173 102.653 40.8133 102.568 40.888C102.493 40.9627 102.397 41 102.28 41H100.264ZM108.252 41.16C107.463 41.16 106.764 41.016 106.156 40.728C105.548 40.44 105.063 40.024 104.7 39.48C104.348 38.9253 104.156 38.264 104.124 37.496C104.114 37.3253 104.108 37.112 104.108 36.856C104.108 36.5893 104.114 36.3707 104.124 36.2C104.156 35.4213 104.348 34.76 104.7 34.216C105.052 33.6613 105.532 33.24 106.14 32.952C106.759 32.664 107.463 32.52 108.252 32.52C108.988 32.52 109.618 32.6267 110.14 32.84C110.663 33.0427 111.09 33.2987 111.42 33.608C111.751 33.9173 111.996 34.2373 112.156 34.568C112.327 34.888 112.418 35.1707 112.428 35.416C112.439 35.5227 112.402 35.6187 112.316 35.704C112.231 35.7787 112.135 35.816 112.028 35.816H109.996C109.879 35.816 109.788 35.7893 109.724 35.736C109.66 35.6827 109.602 35.6027 109.548 35.496C109.42 35.1653 109.255 34.9307 109.052 34.792C108.86 34.6533 108.61 34.584 108.3 34.584C107.874 34.584 107.543 34.7227 107.308 35C107.084 35.2773 106.962 35.704 106.94 36.28C106.93 36.7067 106.93 37.0853 106.94 37.416C106.962 38.0027 107.084 38.4293 107.308 38.696C107.543 38.9627 107.874 39.096 108.3 39.096C108.631 39.096 108.892 39.0267 109.084 38.888C109.276 38.7493 109.431 38.5147 109.548 38.184C109.602 38.0773 109.66 37.9973 109.724 37.944C109.788 37.8907 109.879 37.864 109.996 37.864H112.028C112.135 37.864 112.231 37.9067 112.316 37.992C112.402 38.0667 112.439 38.1573 112.428 38.264C112.418 38.4453 112.364 38.6587 112.268 38.904C112.172 39.1387 112.023 39.3893 111.82 39.656C111.618 39.9227 111.351 40.1733 111.02 40.408C110.7 40.632 110.311 40.8133 109.852 40.952C109.394 41.0907 108.86 41.16 108.252 41.16ZM114.266 41C114.149 41 114.053 40.9627 113.978 40.888C113.903 40.8133 113.866 40.7173 113.866 40.6V30.04C113.866 29.9227 113.903 29.8267 113.978 29.752C114.053 29.6773 114.149 29.64 114.266 29.64H116.314C116.431 29.64 116.527 29.6773 116.602 29.752C116.677 29.8267 116.714 29.9227 116.714 30.04V33.608C117.002 33.2773 117.354 33.016 117.77 32.824C118.197 32.6213 118.687 32.52 119.242 32.52C119.861 32.52 120.41 32.6587 120.89 32.936C121.381 33.2133 121.765 33.624 122.042 34.168C122.319 34.7013 122.458 35.3573 122.458 36.136V40.6C122.458 40.7173 122.421 40.8133 122.346 40.888C122.271 40.9627 122.175 41 122.058 41H119.994C119.887 41 119.791 40.9627 119.706 40.888C119.631 40.8133 119.594 40.7173 119.594 40.6V36.232C119.594 35.7307 119.471 35.3467 119.226 35.08C118.991 34.8027 118.639 34.664 118.17 34.664C117.733 34.664 117.381 34.8027 117.114 35.08C116.847 35.3467 116.714 35.7307 116.714 36.232V40.6C116.714 40.7173 116.677 40.8133 116.602 40.888C116.527 40.9627 116.431 41 116.314 41H114.266ZM126.768 41.16C126.192 41.16 125.675 41.0533 125.216 40.84C124.768 40.616 124.411 40.3173 124.144 39.944C123.877 39.5707 123.744 39.1493 123.744 38.68C123.744 37.9227 124.053 37.3253 124.672 36.888C125.291 36.44 126.112 36.136 127.136 35.976L129.136 35.672V35.448C129.136 35.064 129.056 34.7707 128.896 34.568C128.736 34.3653 128.443 34.264 128.016 34.264C127.717 34.264 127.472 34.3227 127.28 34.44C127.099 34.5573 126.955 34.7173 126.848 34.92C126.752 35.0587 126.619 35.128 126.448 35.128H124.656C124.539 35.128 124.448 35.096 124.384 35.032C124.32 34.9573 124.293 34.872 124.304 34.776C124.304 34.584 124.373 34.3653 124.512 34.12C124.661 33.864 124.885 33.6133 125.184 33.368C125.483 33.1227 125.867 32.92 126.336 32.76C126.805 32.6 127.371 32.52 128.032 32.52C128.725 32.52 129.317 32.6 129.808 32.76C130.299 32.92 130.693 33.144 130.992 33.432C131.301 33.72 131.531 34.0613 131.68 34.456C131.829 34.84 131.904 35.2667 131.904 35.736V40.6C131.904 40.7173 131.861 40.8133 131.776 40.888C131.701 40.9627 131.611 41 131.504 41H129.648C129.531 41 129.435 40.9627 129.36 40.888C129.285 40.8133 129.248 40.7173 129.248 40.6V40.04C129.109 40.2427 128.923 40.4293 128.688 40.6C128.453 40.7707 128.176 40.904 127.856 41C127.547 41.1067 127.184 41.16 126.768 41.16ZM127.52 39.336C127.829 39.336 128.107 39.272 128.352 39.144C128.608 39.0053 128.805 38.7973 128.944 38.52C129.093 38.232 129.168 37.8747 129.168 37.448V37.224L127.808 37.464C127.307 37.5493 126.939 37.6827 126.704 37.864C126.48 38.0347 126.368 38.2373 126.368 38.472C126.368 38.6533 126.421 38.808 126.528 38.936C126.635 39.064 126.773 39.1653 126.944 39.24C127.115 39.304 127.307 39.336 127.52 39.336ZM137.903 41C137.22 41 136.628 40.8933 136.127 40.68C135.636 40.456 135.258 40.1147 134.991 39.656C134.724 39.1867 134.591 38.584 134.591 37.848V34.776H133.343C133.226 34.776 133.124 34.7387 133.039 34.664C132.964 34.5893 132.927 34.4933 132.927 34.376V33.08C132.927 32.9627 132.964 32.8667 133.039 32.792C133.124 32.7173 133.226 32.68 133.343 32.68H134.591V30.04C134.591 29.9227 134.628 29.8267 134.703 29.752C134.788 29.6773 134.884 29.64 134.991 29.64H136.847C136.964 29.64 137.06 29.6773 137.135 29.752C137.21 29.8267 137.247 29.9227 137.247 30.04V32.68H139.247C139.364 32.68 139.46 32.7173 139.535 32.792C139.61 32.8667 139.647 32.9627 139.647 33.08V34.376C139.647 34.4933 139.61 34.5893 139.535 34.664C139.46 34.7387 139.364 34.776 139.247 34.776H137.247V37.624C137.247 37.9867 137.316 38.2747 137.455 38.488C137.594 38.7013 137.828 38.808 138.159 38.808H139.391C139.508 38.808 139.604 38.8453 139.679 38.92C139.754 38.9947 139.791 39.0907 139.791 39.208V40.6C139.791 40.7173 139.754 40.8133 139.679 40.888C139.604 40.9627 139.508 41 139.391 41H137.903Z" fill="#0D0E12"/>
</svg>
